<svg width="20" height="20" viewBox="0 0 20 20" fill="none" xmlns="http://www.w3.org/2000/svg">
<path d="M16.6667 3.33301H3.33333C2.41667 3.33301 1.675 4.08301 1.675 4.99967L1.66667 14.9997C1.66667 15.9163 2.41667 16.6663 3.33333 16.6663H16.6667C17.5833 16.6663 18.3333 15.9163 18.3333 14.9997V4.99967C18.3333 4.08301 17.5833 3.33301 16.6667 3.33301ZM16.3333 6.87467L10.4417 10.558C10.175 10.7247 9.825 10.7247 9.55833 10.558L3.66667 6.87467C3.58311 6.82777 3.50993 6.76439 3.45158 6.68839C3.39322 6.61238 3.35089 6.52532 3.32715 6.43248C3.30341 6.33964 3.29875 6.24295 3.31346 6.14826C3.32818 6.05357 3.36195 5.96285 3.41274 5.88159C3.46352 5.80033 3.53027 5.73022 3.60894 5.6755C3.68761 5.62079 3.77656 5.5826 3.87041 5.56326C3.96427 5.54391 4.06107 5.54381 4.15496 5.56296C4.24886 5.58212 4.33789 5.62012 4.41667 5.67467L10 9.16634L15.5833 5.67467C15.6621 5.62012 15.7511 5.58212 15.845 5.56296C15.9389 5.54381 16.0357 5.54391 16.1296 5.56326C16.2234 5.5826 16.3124 5.62079 16.3911 5.6755C16.4697 5.73022 16.5365 5.80033 16.5873 5.88159C16.6381 5.96285 16.6718 6.05357 16.6865 6.14826C16.7012 6.24295 16.6966 6.33964 16.6729 6.43248C16.6491 6.52532 16.6068 6.61238 16.5484 6.68839C16.4901 6.76439 16.4169 6.82777 16.3333 6.87467Z" fill="white"/>
</svg>
