<svg width="20" height="20" viewBox="0 0 20 20" fill="none" xmlns="http://www.w3.org/2000/svg">
<path d="M16.6667 1.66699H3.33332C2.41666 1.66699 1.67499 2.41699 1.67499 3.33366L1.66666 18.3337L4.99999 15.0003H16.6667C17.5833 15.0003 18.3333 14.2503 18.3333 13.3337V3.33366C18.3333 2.41699 17.5833 1.66699 16.6667 1.66699ZM14.1667 11.667H5.83332C5.37499 11.667 4.99999 11.292 4.99999 10.8337C4.99999 10.3753 5.37499 10.0003 5.83332 10.0003H14.1667C14.625 10.0003 15 10.3753 15 10.8337C15 11.292 14.625 11.667 14.1667 11.667ZM14.1667 9.16699H5.83332C5.37499 9.16699 4.99999 8.79199 4.99999 8.33366C4.99999 7.87533 5.37499 7.50033 5.83332 7.50033H14.1667C14.625 7.50033 15 7.87533 15 8.33366C15 8.79199 14.625 9.16699 14.1667 9.16699ZM14.1667 6.66699H5.83332C5.37499 6.66699 4.99999 6.29199 4.99999 5.83366C4.99999 5.37533 5.37499 5.00033 5.83332 5.00033H14.1667C14.625 5.00033 15 5.37533 15 5.83366C15 6.29199 14.625 6.66699 14.1667 6.66699Z" fill="white"/>
</svg>
