<svg width="18" height="17" viewBox="0 0 18 17" fill="none" xmlns="http://www.w3.org/2000/svg">
<path d="M9.00001 0.5C13.8333 0.5 17.7508 3.55333 17.7508 7.32083C17.7508 11.0875 13.8333 14.1408 9.00084 14.1408C8.51969 14.14 8.03905 14.1094 7.56167 14.0492L3.88834 16.4517C3.47084 16.6725 3.32334 16.6483 3.49501 16.1075L4.23834 13.0425C1.83834 11.8258 0.250839 9.7175 0.250839 7.32083C0.250839 3.55417 4.16751 0.5 9.00084 0.5M13.9242 7.21667L15.1492 6.03C15.2199 5.95659 15.2593 5.85861 15.2592 5.7567C15.259 5.6548 15.2194 5.55691 15.1485 5.48367C15.0777 5.41044 14.9811 5.36756 14.8793 5.36408C14.7774 5.36059 14.6782 5.39677 14.6025 5.465L12.9958 7.02V5.735C12.9958 5.63068 12.9544 5.53064 12.8806 5.45687C12.8069 5.38311 12.7068 5.34167 12.6025 5.34167C12.4982 5.34167 12.3981 5.38311 12.3244 5.45687C12.2506 5.53064 12.2092 5.63068 12.2092 5.735V7.86583C12.1953 7.92672 12.1953 7.98995 12.2092 8.05083V9.25C12.2092 9.35432 12.2506 9.45436 12.3244 9.52813C12.3981 9.60189 12.4982 9.64333 12.6025 9.64333C12.7068 9.64333 12.8069 9.60189 12.8806 9.52813C12.9544 9.45436 12.9958 9.35432 12.9958 9.25V8.11417L13.3517 7.77L14.5417 9.46417C14.5714 9.50646 14.6091 9.54249 14.6528 9.5702C14.6964 9.59791 14.7451 9.61675 14.796 9.62565C14.8469 9.63455 14.8991 9.63333 14.9495 9.62207C15 9.6108 15.0477 9.58971 15.09 9.56C15.1323 9.53029 15.1683 9.49254 15.196 9.4489C15.2237 9.40526 15.2426 9.3566 15.2515 9.30568C15.2604 9.25476 15.2592 9.20259 15.2479 9.15215C15.2366 9.1017 15.2156 9.05396 15.1858 9.01167L13.9242 7.21667ZM11.4592 8.82H10.2425V5.7475C10.2378 5.64642 10.1944 5.55103 10.1212 5.48114C10.0481 5.41126 9.95077 5.37227 9.84959 5.37227C9.7484 5.37227 9.65111 5.41126 9.57793 5.48114C9.50476 5.55103 9.46133 5.64642 9.45667 5.7475V9.21333C9.45667 9.43 9.63167 9.60667 9.84917 9.60667H11.4592C11.5635 9.60667 11.6635 9.56523 11.7373 9.49146C11.8111 9.4177 11.8525 9.31765 11.8525 9.21333C11.8525 9.10902 11.8111 9.00897 11.7373 8.93521C11.6635 8.86144 11.5635 8.82 11.4592 8.82ZM6.57834 7.91083L7.15834 6.4875L7.69001 7.91L6.57834 7.91083ZM8.68084 8.31667L8.68251 8.30333C8.68223 8.20426 8.64441 8.10897 8.57667 8.03667L7.70501 5.70333C7.66847 5.59214 7.59886 5.49475 7.5055 5.42416C7.41213 5.35358 7.29945 5.31317 7.18251 5.30833C7.06481 5.30828 6.94985 5.34383 6.85273 5.41031C6.75561 5.47679 6.68088 5.5711 6.63834 5.68083L5.25334 9.07667C5.21389 9.17325 5.21442 9.28155 5.25482 9.37774C5.29522 9.47393 5.37217 9.55013 5.46876 9.58958C5.56534 9.62903 5.67364 9.6285 5.76983 9.5881C5.86602 9.54771 5.94222 9.47075 5.98167 9.37417L6.25834 8.69667H7.98334L8.23167 9.36333C8.24861 9.41317 8.27538 9.45909 8.31039 9.49839C8.34541 9.53769 8.38795 9.56956 8.4355 9.59212C8.48306 9.61467 8.53466 9.62746 8.58724 9.62971C8.63982 9.63196 8.69233 9.62364 8.74164 9.60523C8.79094 9.58682 8.83606 9.55871 8.8743 9.52255C8.91255 9.48639 8.94315 9.44292 8.96429 9.39472C8.98543 9.34652 8.99668 9.29457 8.99737 9.24194C8.99807 9.18931 8.9882 9.13708 8.96834 9.08833L8.68084 8.31667ZM5.91167 5.75167C5.91189 5.70002 5.9019 5.64884 5.88226 5.60108C5.86262 5.55331 5.83373 5.5099 5.79725 5.47334C5.76077 5.43679 5.71742 5.4078 5.6697 5.38807C5.62197 5.36833 5.57082 5.35822 5.51917 5.35833H2.81501C2.71069 5.35833 2.61064 5.39977 2.53688 5.47354C2.46311 5.5473 2.42167 5.64735 2.42167 5.75167C2.42167 5.85599 2.46311 5.95603 2.53688 6.0298C2.61064 6.10356 2.71069 6.145 2.81501 6.145H3.78167V9.25833C3.78167 9.36265 3.82311 9.4627 3.89688 9.53646C3.97064 9.61023 4.07069 9.65167 4.17501 9.65167C4.27932 9.65167 4.37937 9.61023 4.45313 9.53646C4.5269 9.4627 4.56834 9.36265 4.56834 9.25833V6.145H5.51834C5.57005 6.14522 5.6213 6.1352 5.66912 6.11551C5.71694 6.09582 5.76039 6.06686 5.79696 6.03029C5.83353 5.99372 5.86249 5.95027 5.88218 5.90245C5.90187 5.85463 5.91189 5.80338 5.91167 5.75167Z" fill="white"/>
</svg>
