<svg width="21" height="20" viewBox="0 0 21 20" fill="none" xmlns="http://www.w3.org/2000/svg">
<path d="M10.5 17.2727C8.4697 17.2727 6.75 16.5682 5.34091 15.1591C3.93182 13.75 3.22727 12.0303 3.22727 10C3.22727 7.9697 3.93182 6.25 5.34091 4.84091C6.75 3.43182 8.4697 2.72727 10.5 2.72727C12.5303 2.72727 14.25 3.43182 15.6591 4.84091C17.0682 6.25 17.7727 7.9697 17.7727 10C17.7727 12.0303 17.0682 13.75 15.6591 15.1591C14.25 16.5682 12.5303 17.2727 10.5 17.2727ZM10.5 15.4545C12.0152 15.4545 13.303 14.9242 14.3636 13.8636C15.4242 12.803 15.9545 11.5152 15.9545 10C15.9545 9.74242 15.9358 9.48849 15.8982 9.23818C15.86 8.98849 15.803 8.74242 15.7273 8.5C15.5 8.54546 15.2727 8.57939 15.0455 8.60182C14.8182 8.62485 14.5909 8.63636 14.3636 8.63636C13.4091 8.63636 12.5 8.45455 11.6364 8.09091C10.7727 7.72727 10 7.19697 9.31818 6.5C8.89394 7.36364 8.31061 8.11364 7.56818 8.75C6.82576 9.38636 5.98485 9.84848 5.04545 10.1364C5.09091 11.6212 5.64 12.8788 6.69273 13.9091C7.74606 14.9394 9.01515 15.4545 10.5 15.4545ZM8.22727 11.8182C7.9697 11.8182 7.75394 11.7309 7.58 11.5564C7.40545 11.3824 7.31818 11.1667 7.31818 10.9091C7.31818 10.6515 7.40545 10.4355 7.58 10.2609C7.75394 10.087 7.9697 10 8.22727 10C8.48485 10 8.70091 10.087 8.87545 10.2609C9.04939 10.4355 9.13636 10.6515 9.13636 10.9091C9.13636 11.1667 9.04939 11.3824 8.87545 11.5564C8.70091 11.7309 8.48485 11.8182 8.22727 11.8182ZM12.7727 11.8182C12.5152 11.8182 12.2994 11.7309 12.1255 11.5564C11.9509 11.3824 11.8636 11.1667 11.8636 10.9091C11.8636 10.6515 11.9509 10.4355 12.1255 10.2609C12.2994 10.087 12.5152 10 12.7727 10C13.0303 10 13.2464 10.087 13.4209 10.2609C13.5948 10.4355 13.6818 10.6515 13.6818 10.9091C13.6818 11.1667 13.5948 11.3824 13.4209 11.5564C13.2464 11.7309 13.0303 11.8182 12.7727 11.8182ZM4.13636 1.81818H2.31818V3.63636C2.31818 3.89394 2.23121 4.11 2.05727 4.28455C1.88273 4.45848 1.66667 4.54545 1.40909 4.54545C1.15152 4.54545 0.935758 4.45848 0.761818 4.28455C0.587273 4.11 0.5 3.89394 0.5 3.63636V1.81818C0.5 1.31818 0.678182 0.89 1.03455 0.533636C1.3903 0.177879 1.81818 0 2.31818 0H4.13636C4.39394 0 4.61 0.0869696 4.78455 0.260909C4.95848 0.435455 5.04545 0.651515 5.04545 0.909091C5.04545 1.16667 4.95848 1.38242 4.78455 1.55636C4.61 1.73091 4.39394 1.81818 4.13636 1.81818ZM2.31818 20C1.81818 20 1.3903 19.8221 1.03455 19.4664C0.678182 19.11 0.5 18.6818 0.5 18.1818V16.3636C0.5 16.1061 0.587273 15.8903 0.761818 15.7164C0.935758 15.5418 1.15152 15.4545 1.40909 15.4545C1.66667 15.4545 1.88273 15.5418 2.05727 15.7164C2.23121 15.8903 2.31818 16.1061 2.31818 16.3636V18.1818H4.13636C4.39394 18.1818 4.61 18.2691 4.78455 18.4436C4.95848 18.6176 5.04545 18.8333 5.04545 19.0909C5.04545 19.3485 4.95848 19.5642 4.78455 19.7382C4.61 19.9127 4.39394 20 4.13636 20H2.31818ZM18.6818 20H16.8636C16.6061 20 16.3903 19.9127 16.2164 19.7382C16.0418 19.5642 15.9545 19.3485 15.9545 19.0909C15.9545 18.8333 16.0418 18.6176 16.2164 18.4436C16.3903 18.2691 16.6061 18.1818 16.8636 18.1818H18.6818V16.3636C18.6818 16.1061 18.7691 15.8903 18.9436 15.7164C19.1176 15.5418 19.3333 15.4545 19.5909 15.4545C19.8485 15.4545 20.0642 15.5418 20.2382 15.7164C20.4127 15.8903 20.5 16.1061 20.5 16.3636V18.1818C20.5 18.6818 20.3221 19.11 19.9664 19.4664C19.61 19.8221 19.1818 20 18.6818 20ZM16.8636 1.81818C16.6061 1.81818 16.3903 1.73091 16.2164 1.55636C16.0418 1.38242 15.9545 1.16667 15.9545 0.909091C15.9545 0.651515 16.0418 0.435455 16.2164 0.260909C16.3903 0.0869696 16.6061 0 16.8636 0H18.6818C19.1818 0 19.61 0.177879 19.9664 0.533636C20.3221 0.89 20.5 1.31818 20.5 1.81818V3.63636C20.5 3.89394 20.4127 4.11 20.2382 4.28455C20.0642 4.45848 19.8485 4.54545 19.5909 4.54545C19.3333 4.54545 19.1176 4.45848 18.9436 4.28455C18.7691 4.11 18.6818 3.89394 18.6818 3.63636V1.81818H16.8636Z" fill="white"/>
</svg>
