<svg width="28" height="30" viewBox="0 0 28 30" fill="none" xmlns="http://www.w3.org/2000/svg">
<path d="M5.1875 30C3.9125 30 2.84375 29.5688 1.98125 28.7063C1.11875 27.8438 0.6875 26.775 0.6875 25.5V4.5C0.6875 3.25 1.11875 2.1875 1.98125 1.3125C2.84375 0.4375 3.9125 0 5.1875 0H18.6875C19.5125 0 20.2188 0.29375 20.8063 0.88125C21.3938 1.46875 21.6875 2.175 21.6875 3V21C21.6875 21.825 21.3938 22.5312 20.8063 23.1188C20.2188 23.7063 19.5125 24 18.6875 24H5.1875C4.7625 24 4.40625 24.1438 4.11875 24.4313C3.83125 24.7188 3.6875 25.075 3.6875 25.5C3.6875 25.925 3.83125 26.2813 4.11875 26.5688C4.40625 26.8563 4.7625 27 5.1875 27H24.6875V4.5C24.6875 4.075 24.8313 3.71875 25.1188 3.43125C25.4063 3.14375 25.7625 3 26.1875 3C26.6125 3 26.9688 3.14375 27.2563 3.43125C27.5438 3.71875 27.6875 4.075 27.6875 4.5V27C27.6875 27.825 27.3938 28.5313 26.8063 29.1188C26.2188 29.7063 25.5125 30 24.6875 30H5.1875ZM8.1875 21C8.6125 21 8.96875 20.8563 9.25625 20.5688C9.54375 20.2812 9.6875 19.925 9.6875 19.5V4.5C9.6875 4.075 9.54375 3.71875 9.25625 3.43125C8.96875 3.14375 8.6125 3 8.1875 3C7.7625 3 7.40625 3.14375 7.11875 3.43125C6.83125 3.71875 6.6875 4.075 6.6875 4.5V19.5C6.6875 19.925 6.83125 20.2812 7.11875 20.5688C7.40625 20.8563 7.7625 21 8.1875 21Z" fill="#757575"/>
</svg>
