<svg width="28" height="30" viewBox="0 0 28 30" fill="none" xmlns="http://www.w3.org/2000/svg">
<path d="M11.5625 23.475L8.375 20.2875C8.075 19.9875 7.925 19.625 7.925 19.2C7.925 18.775 8.075 18.4125 8.375 18.1125C8.675 17.8125 9.0375 17.6625 9.4625 17.6625C9.8875 17.6625 10.25 17.8125 10.55 18.1125L12.6125 20.175L17.825 14.9625C18.125 14.6625 18.4875 14.5125 18.9125 14.5125C19.3375 14.5125 19.7 14.6625 20 14.9625C20.3 15.2625 20.45 15.625 20.45 16.05C20.45 16.475 20.3 16.8375 20 17.1375L13.6625 23.475C13.3875 23.75 13.0375 23.8875 12.6125 23.8875C12.1875 23.8875 11.8375 23.75 11.5625 23.475ZM3.6875 30C2.8625 30 2.156 29.7065 1.568 29.1195C0.981 28.5315 0.6875 27.825 0.6875 27V6C0.6875 5.175 0.981 4.469 1.568 3.882C2.156 3.294 2.8625 3 3.6875 3H5.1875V1.5C5.1875 1.075 5.331 0.7185 5.618 0.4305C5.906 0.1435 6.2625 0 6.6875 0C7.1125 0 7.469 0.1435 7.757 0.4305C8.044 0.7185 8.1875 1.075 8.1875 1.5V3H20.1875V1.5C20.1875 1.075 20.3315 0.7185 20.6195 0.4305C20.9065 0.1435 21.2625 0 21.6875 0C22.1125 0 22.4685 0.1435 22.7555 0.4305C23.0435 0.7185 23.1875 1.075 23.1875 1.5V3H24.6875C25.5125 3 26.219 3.294 26.807 3.882C27.394 4.469 27.6875 5.175 27.6875 6V27C27.6875 27.825 27.394 28.5315 26.807 29.1195C26.219 29.7065 25.5125 30 24.6875 30H3.6875ZM3.6875 27H24.6875V12H3.6875V27Z" fill="#757575"/>
</svg>
