<svg width="28" height="30" viewBox="0 0 28 30" fill="none" xmlns="http://www.w3.org/2000/svg">
<path d="M15.8555 0C9.6055 0 4.52217 4.9 4.22217 11.0667L1.02217 15.3333C0.605502 15.8833 1.0055 16.6667 1.68884 16.6667H4.18884V21.6667C4.18884 23.5 5.68884 25 7.52217 25H9.18884V30H20.8555V22.2C24.7888 20.3333 27.5222 16.3167 27.5222 11.6667C27.5222 5.21667 22.3055 0 15.8555 0ZM20.8555 11.6667C20.8555 11.8833 20.8388 12.1 20.8222 12.3167L22.2055 13.4167C22.3388 13.5167 22.3722 13.6833 22.2888 13.8333L20.9555 16.15C20.8722 16.3 20.6888 16.35 20.5555 16.3L18.9055 15.6333C18.5555 15.9 18.1888 16.1167 17.7888 16.2833L17.5222 18.05C17.5055 18.2167 17.3555 18.3333 17.1888 18.3333H14.5222C14.3555 18.3333 14.2222 18.2167 14.1888 18.05L13.9388 16.2833C13.5222 16.1167 13.1555 15.9 12.8055 15.6333L11.1555 16.3C11.0055 16.35 10.8222 16.3 10.7388 16.15L9.4055 13.8333C9.32217 13.7 9.3555 13.5167 9.48884 13.4167L10.8888 12.3167C10.8722 12.1 10.8555 11.8833 10.8555 11.6667C10.8555 11.45 10.8888 11.2167 10.9222 11.0167L9.5055 9.91667C9.37217 9.81667 9.33884 9.65 9.42217 9.48333L10.7555 7.18333C10.8388 7.03333 11.0055 6.98333 11.1555 7.03333L12.8222 7.7C13.1555 7.45 13.5388 7.21667 13.9388 7.05L14.1888 5.28333C14.2222 5.11667 14.3555 5 14.5222 5H17.1888C17.3555 5 17.4888 5.11667 17.5222 5.28333L17.7722 7.05C18.1722 7.21667 18.5388 7.43333 18.8888 7.7L20.5555 7.03333C20.7055 6.98333 20.8888 7.03333 20.9555 7.18333L22.2888 9.48333C22.3722 9.63333 22.3388 9.81667 22.2055 9.91667L20.7888 11.0167C20.8388 11.2167 20.8555 11.4333 20.8555 11.6667Z" fill="#757575"/>
</svg>
