<svg width="31" height="28" viewBox="0 0 31 28" fill="none" xmlns="http://www.w3.org/2000/svg">
<path d="M30.1875 8.48097C30.1875 9.90784 29.944 11.2872 29.4569 12.6189C28.969 13.9506 28.285 15.1873 27.4051 16.3288C27.1435 16.6617 26.7987 16.8638 26.3706 16.9352C25.9426 17.0065 25.5858 16.8995 25.3005 16.6141C25.0389 16.3526 24.9019 16.0253 24.8895 15.6325C24.8781 15.2405 25.0032 14.8781 25.2648 14.5452C25.9307 13.6653 26.442 12.7078 26.7987 11.6729C27.1554 10.6389 27.3338 9.5749 27.3338 8.48097C27.3338 7.38703 27.1554 6.32877 26.7987 5.30618C26.442 4.28358 25.9307 3.33234 25.2648 2.45243C25.0032 2.11949 24.8781 1.75659 24.8895 1.36373C24.9019 0.971812 25.0389 0.645058 25.3005 0.383465C25.5858 0.0980904 25.9426 -0.00892492 26.3706 0.0624187C26.7987 0.133762 27.1435 0.335903 27.4051 0.66884C28.3088 1.81034 28.9984 3.04078 29.4741 4.36016C29.9497 5.68049 30.1875 7.0541 30.1875 8.48097ZM24.48 8.4453C24.48 9.13495 24.3787 9.81272 24.1761 10.4786C23.9744 11.1445 23.6833 11.7628 23.3028 12.3335C23.065 12.6665 22.744 12.8567 22.3397 12.9043C21.9354 12.9518 21.5906 12.8329 21.3052 12.5476C21.0436 12.286 20.9009 11.953 20.8772 11.5487C20.8534 11.1445 20.9366 10.7759 21.1269 10.4429C21.2933 10.1338 21.4184 9.81272 21.5021 9.47978C21.5849 9.14684 21.6263 8.80202 21.6263 8.4453C21.6263 8.11236 21.5849 7.77942 21.5021 7.44649C21.4184 7.11355 21.2933 6.7925 21.1269 6.48335C20.9366 6.15041 20.8534 5.7818 20.8772 5.37752C20.9009 4.97324 21.0436 4.6403 21.3052 4.37871C21.5906 4.09333 21.9354 3.97443 22.3397 4.02199C22.744 4.06955 23.065 4.2598 23.3028 4.59274C23.6596 5.18727 23.9449 5.80558 24.159 6.44768C24.373 7.08977 24.48 7.75564 24.48 8.4453ZM11.6025 16.5428C10.0329 16.5428 8.68928 15.9839 7.57157 14.8662C6.45385 13.7485 5.89499 12.4049 5.89499 10.8353C5.89499 9.26575 6.45385 7.92211 7.57157 6.80439C8.68928 5.68668 10.0329 5.12782 11.6025 5.12782C13.172 5.12782 14.5157 5.68668 15.6334 6.80439C16.7511 7.92211 17.31 9.26575 17.31 10.8353C17.31 12.4049 16.7511 13.7485 15.6334 14.8662C14.5157 15.9839 13.172 16.5428 11.6025 16.5428ZM3.04125 27.9578C2.25647 27.9578 1.58488 27.6786 1.0265 27.1202C0.467167 26.5609 0.1875 25.8888 0.1875 25.104V23.9625C0.1875 23.1778 0.38964 22.4405 0.793921 21.7509C1.1982 21.0612 1.75706 20.538 2.4705 20.1813C3.68334 19.563 5.05076 19.0398 6.57276 18.6118C8.09475 18.1837 9.77133 17.9697 11.6025 17.9697C13.4336 17.9697 15.1102 18.1837 16.6322 18.6118C18.1542 19.0398 19.5216 19.563 20.7345 20.1813C21.4479 20.538 22.0068 21.0612 22.411 21.7509C22.8153 22.4405 23.0175 23.1778 23.0175 23.9625V25.104C23.0175 25.8888 22.7383 26.5609 22.1799 27.1202C21.6206 27.6786 20.9485 27.9578 20.1637 27.9578H3.04125Z" fill="#757575"/>
</svg>
