<svg width="31" height="30" viewBox="0 0 31 30" fill="none" xmlns="http://www.w3.org/2000/svg">
<path d="M3.1875 30C2.3625 30 1.6565 29.7065 1.0695 29.1195C0.4815 28.5315 0.1875 27.825 0.1875 27V3C0.1875 2.175 0.4815 1.4685 1.0695 0.8805C1.6565 0.2935 2.3625 0 3.1875 0H27.1875C28.0125 0 28.719 0.2935 29.307 0.8805C29.894 1.4685 30.1875 2.175 30.1875 3V27C30.1875 27.825 29.894 28.5315 29.307 29.1195C28.719 29.7065 28.0125 30 27.1875 30H3.1875ZM3.1875 21V27H9.1875V21H3.1875ZM12.1875 21V27H18.1875V21H12.1875ZM21.1875 27H27.1875V21H21.1875V27ZM3.1875 18H9.1875V12H3.1875V18ZM12.1875 18H18.1875V12H12.1875V18ZM21.1875 18H27.1875V12H21.1875V18ZM9.1875 3H3.1875V9H9.1875V3ZM12.1875 9H18.1875V3H12.1875V9ZM21.1875 9H27.1875V3H21.1875V9Z" fill="#757575"/>
</svg>
