<svg width="31" height="30" viewBox="0 0 31 30" fill="none" xmlns="http://www.w3.org/2000/svg">
<path d="M15.1875 25.9091C12.142 25.9091 9.5625 24.8523 7.44886 22.7386C5.33523 20.625 4.27841 18.0455 4.27841 15C4.27841 11.9545 5.33523 9.375 7.44886 7.26136C9.5625 5.14773 12.142 4.09091 15.1875 4.09091C18.233 4.09091 20.8125 5.14773 22.9261 7.26136C25.0398 9.375 26.0966 11.9545 26.0966 15C26.0966 18.0455 25.0398 20.625 22.9261 22.7386C20.8125 24.8523 18.233 25.9091 15.1875 25.9091ZM15.1875 23.1818C17.4602 23.1818 19.392 22.3864 20.983 20.7955C22.5739 19.2045 23.3693 17.2727 23.3693 15C23.3693 14.6136 23.3411 14.2327 23.2848 13.8573C23.2275 13.4827 23.142 13.1136 23.0284 12.75C22.6875 12.8182 22.3466 12.8691 22.0057 12.9027C21.6648 12.9373 21.3239 12.9545 20.983 12.9545C19.5511 12.9545 18.1875 12.6818 16.892 12.1364C15.5966 11.5909 14.4375 10.7955 13.4148 9.75C12.7784 11.0455 11.9034 12.1705 10.7898 13.125C9.67614 14.0795 8.41477 14.7727 7.00568 15.2045C7.07386 17.4318 7.8975 19.3182 9.47659 20.8636C11.0566 22.4091 12.9602 23.1818 15.1875 23.1818ZM11.7784 17.7273C11.392 17.7273 11.0684 17.5964 10.8075 17.3345C10.5457 17.0736 10.4148 16.75 10.4148 16.3636C10.4148 15.9773 10.5457 15.6532 10.8075 15.3914C11.0684 15.1305 11.392 15 11.7784 15C12.1648 15 12.4889 15.1305 12.7507 15.3914C13.0116 15.6532 13.142 15.9773 13.142 16.3636C13.142 16.75 13.0116 17.0736 12.7507 17.3345C12.4889 17.5964 12.1648 17.7273 11.7784 17.7273ZM18.5966 17.7273C18.2102 17.7273 17.8866 17.5964 17.6257 17.3345C17.3639 17.0736 17.233 16.75 17.233 16.3636C17.233 15.9773 17.3639 15.6532 17.6257 15.3914C17.8866 15.1305 18.2102 15 18.5966 15C18.983 15 19.307 15.1305 19.5689 15.3914C19.8298 15.6532 19.9602 15.9773 19.9602 16.3636C19.9602 16.75 19.8298 17.0736 19.5689 17.3345C19.307 17.5964 18.983 17.7273 18.5966 17.7273ZM5.64205 2.72727H2.91477V5.45455C2.91477 5.84091 2.78432 6.165 2.52341 6.42682C2.26159 6.68773 1.9375 6.81818 1.55114 6.81818C1.16477 6.81818 0.841136 6.68773 0.580227 6.42682C0.318409 6.165 0.1875 5.84091 0.1875 5.45455V2.72727C0.1875 1.97727 0.454773 1.335 0.989318 0.800455C1.52295 0.266818 2.16477 0 2.91477 0H5.64205C6.02841 0 6.3525 0.130454 6.61432 0.391364C6.87523 0.653182 7.00568 0.977273 7.00568 1.36364C7.00568 1.75 6.87523 2.07364 6.61432 2.33455C6.3525 2.59636 6.02841 2.72727 5.64205 2.72727ZM2.91477 30C2.16477 30 1.52295 29.7332 0.989318 29.1995C0.454773 28.665 0.1875 28.0227 0.1875 27.2727V24.5455C0.1875 24.1591 0.318409 23.8355 0.580227 23.5745C0.841136 23.3127 1.16477 23.1818 1.55114 23.1818C1.9375 23.1818 2.26159 23.3127 2.52341 23.5745C2.78432 23.8355 2.91477 24.1591 2.91477 24.5455V27.2727H5.64205C6.02841 27.2727 6.3525 27.4036 6.61432 27.6655C6.87523 27.9264 7.00568 28.25 7.00568 28.6364C7.00568 29.0227 6.87523 29.3464 6.61432 29.6073C6.3525 29.8691 6.02841 30 5.64205 30H2.91477ZM27.4602 30H24.733C24.3466 30 24.023 29.8691 23.762 29.6073C23.5002 29.3464 23.3693 29.0227 23.3693 28.6364C23.3693 28.25 23.5002 27.9264 23.762 27.6655C24.023 27.4036 24.3466 27.2727 24.733 27.2727H27.4602V24.5455C27.4602 24.1591 27.5911 23.8355 27.853 23.5745C28.1139 23.3127 28.4375 23.1818 28.8239 23.1818C29.2102 23.1818 29.5339 23.3127 29.7948 23.5745C30.0566 23.8355 30.1875 24.1591 30.1875 24.5455V27.2727C30.1875 28.0227 29.9207 28.665 29.387 29.1995C28.8525 29.7332 28.2102 30 27.4602 30ZM24.733 2.72727C24.3466 2.72727 24.023 2.59636 23.762 2.33455C23.5002 2.07364 23.3693 1.75 23.3693 1.36364C23.3693 0.977273 23.5002 0.653182 23.762 0.391364C24.023 0.130454 24.3466 0 24.733 0H27.4602C28.2102 0 28.8525 0.266818 29.387 0.800455C29.9207 1.335 30.1875 1.97727 30.1875 2.72727V5.45455C30.1875 5.84091 30.0566 6.165 29.7948 6.42682C29.5339 6.68773 29.2102 6.81818 28.8239 6.81818C28.4375 6.81818 28.1139 6.68773 27.853 6.42682C27.5911 6.165 27.4602 5.84091 27.4602 5.45455V2.72727H24.733Z" fill="#757575"/>
</svg>
