<svg width="26" height="21" viewBox="0 0 26 21" fill="none" xmlns="http://www.w3.org/2000/svg">
<path d="M20.416 8.85352V11.3535H25.416V8.85352H20.416ZM17.916 17.116C19.116 18.0035 20.6785 19.1785 21.916 20.1035C22.416 19.441 22.916 18.766 23.416 18.1035C22.1785 17.1785 20.616 16.0035 19.416 15.1035C18.916 15.7785 18.416 16.4535 17.916 17.116ZM23.416 2.10352C22.916 1.44102 22.416 0.766016 21.916 0.103516C20.6785 1.02852 19.116 2.20352 17.916 3.10352C18.416 3.76602 18.916 4.44102 19.416 5.10352C20.616 4.20352 22.1785 3.04102 23.416 2.10352ZM2.91602 6.35352C1.54102 6.35352 0.416016 7.47852 0.416016 8.85352V11.3535C0.416016 12.7285 1.54102 13.8535 2.91602 13.8535H4.16602V18.8535H6.66602V13.8535H7.91602L14.166 17.6035V2.60352L7.91602 6.35352H2.91602ZM17.291 10.1035C17.291 8.44102 16.566 6.94102 15.416 5.91602V14.2785C16.566 13.266 17.291 11.766 17.291 10.1035Z" fill="#757575"/>
</svg>
