<svg width="21" height="18" viewBox="0 0 21 18" fill="none" xmlns="http://www.w3.org/2000/svg">
<g clip-path="url(#clip0_2304_2244)">
<path d="M11.8294 0.139762C11.7306 0.0646456 11.6006 0.0362036 11.476 0.0620931L0.64564 2.39579C0.455065 2.43663 0.320334 2.59562 0.322287 2.7783V16.0027C0.322287 16.1945 0.472248 16.3579 0.67571 16.3871L11.5061 17.943C11.7334 17.9754 11.9462 17.8299 11.981 17.6177C11.9841 17.598 11.9857 17.5783 11.9857 17.5586V0.444601C11.9857 0.326093 11.9282 0.213784 11.8291 0.139762H11.8294Z" fill="white"/>
<path d="M19.9004 16.3917H11.5693C11.3393 16.3917 11.1526 16.2174 11.1526 16.0026C11.1526 15.7878 11.3393 15.6135 11.5693 15.6135H19.4841V2.38947H11.5693C11.3393 2.38947 11.1526 2.21517 11.1526 2.0004C11.1526 1.78563 11.3393 1.61133 11.5693 1.61133H19.9004C20.1304 1.61133 20.3171 1.78563 20.3171 2.0004V16.0026C20.3171 16.2174 20.1308 16.3917 19.9004 16.3917Z" fill="white"/>
<path d="M8.23699 12.5028C8.09328 12.5028 7.95972 12.4338 7.88396 12.3201L3.71825 6.09675C3.59016 5.91844 3.64132 5.67668 3.83267 5.55708C4.02403 5.43748 4.28256 5.48525 4.41065 5.66392C4.41572 5.67085 4.42041 5.67814 4.4251 5.68543L8.59081 11.9088C8.71226 12.0911 8.65251 12.331 8.45686 12.4444C8.39086 12.4827 8.3151 12.5028 8.23739 12.5031L8.23699 12.5028Z" fill="#4CAF50"/>
<path d="M4.0713 12.5026C3.84129 12.5022 3.65501 12.3276 3.6554 12.1128C3.6554 12.0402 3.67766 11.9691 3.71866 11.9075L7.88437 5.68417C7.99958 5.49821 8.25459 5.43512 8.45376 5.54269C8.65292 5.65026 8.72048 5.88837 8.60528 6.07434C8.60059 6.08163 8.59591 6.08892 8.59083 6.09585L4.42512 12.3192C4.34897 12.4333 4.21502 12.503 4.07091 12.503L4.0713 12.5026Z" fill="#4CAF50"/>
<path d="M14.9018 16.3913C14.6717 16.3913 14.485 16.217 14.485 16.0022V2.0004C14.485 1.78563 14.6717 1.61133 14.9018 1.61133C15.1319 1.61133 15.3186 1.78563 15.3186 2.0004V16.0026C15.3186 16.2174 15.1319 16.3917 14.9018 16.3917V16.3913Z" fill="white"/>
<path d="M19.9004 14.0574H11.5693C11.3393 14.0574 11.1526 13.8831 11.1526 13.6684C11.1526 13.4536 11.3393 13.2793 11.5693 13.2793H19.9004C20.1304 13.2793 20.3171 13.4536 20.3171 13.6684C20.3171 13.8831 20.1308 14.0574 19.9004 14.0574Z" fill="white"/>
<path d="M19.9004 11.7235H11.5693C11.3393 11.7235 11.1526 11.5492 11.1526 11.3344C11.1526 11.1196 11.3393 10.9453 11.5693 10.9453H19.9004C20.1304 10.9453 20.3171 11.1196 20.3171 11.3344C20.3171 11.5492 20.1308 11.7235 19.9004 11.7235Z" fill="white"/>
<path d="M19.9004 9.39045H11.5693C11.3393 9.39045 11.1526 9.21615 11.1526 9.00138C11.1526 8.7866 11.3393 8.6123 11.5693 8.6123H19.9004C20.1304 8.6123 20.3171 8.7866 20.3171 9.00138C20.3171 9.21615 20.1308 9.39045 19.9004 9.39045Z" fill="white"/>
<path d="M19.9004 7.05646H11.5693C11.3393 7.05646 11.1526 6.88217 11.1526 6.66739C11.1526 6.45262 11.3393 6.27832 11.5693 6.27832H19.9004C20.1304 6.27832 20.3171 6.45262 20.3171 6.66739C20.3171 6.88217 20.1308 7.05646 19.9004 7.05646Z" fill="white"/>
<path d="M19.9004 4.72248H11.5693C11.3393 4.72248 11.1526 4.54818 11.1526 4.33341C11.1526 4.11863 11.3393 3.94434 11.5693 3.94434H19.9004C20.1304 3.94434 20.3171 4.11863 20.3171 4.33341C20.3171 4.54818 20.1308 4.72248 19.9004 4.72248Z" fill="white"/>
</g>
<defs>
<clipPath id="clip0_2304_2244">
<rect width="19.9948" height="17.8947" fill="white" transform="translate(0.322266 0.0527344)"/>
</clipPath>
</defs>
</svg>
