<svg width="26" height="26" viewBox="0 0 26 26" fill="none" xmlns="http://www.w3.org/2000/svg">
<path d="M12.916 0.603516C11.2814 0.603516 10.0314 1.85352 10.0314 3.48813V9.25736C10.0314 10.892 11.2814 12.142 12.916 12.142H18.6852L22.5314 15.9881V12.142C24.166 12.142 25.416 10.892 25.416 9.25736V3.48813C25.416 1.85352 24.166 0.603516 22.5314 0.603516H12.916ZM16.9429 3.48813H18.5949L20.2179 9.25736H18.7756L18.3843 7.81505H16.942L16.5824 9.25736H15.3199L16.9429 3.48813ZM17.7237 4.44967C17.6276 4.83428 17.5199 5.30352 17.4227 5.59198L17.1535 6.85352H18.2949L18.0237 5.59102C17.8324 5.30352 17.7237 4.83428 17.7237 4.44967ZM3.30063 10.2189C1.66602 10.2189 0.416016 11.4689 0.416016 13.1035V18.8727C0.416016 20.5074 1.66602 21.7574 3.30063 21.7574V25.6035L7.14678 21.7574H12.916C14.5506 21.7574 15.8006 20.5074 15.8006 18.8727V13.1035H12.916C11.0891 13.1035 9.64102 11.8535 9.16025 10.2189H3.30063ZM7.71794 13.0131C9.35255 13.0131 10.1218 14.3593 10.1218 15.8977C10.1218 17.2439 9.65928 18.0977 8.89005 18.4824C9.27467 18.6747 9.73044 18.7766 10.2112 18.8727L9.85159 19.8343C9.17852 19.642 8.48044 19.342 7.80736 19.0526C7.71121 18.9564 7.54294 18.9631 7.44678 18.9631C6.29294 18.867 5.22371 17.9112 5.22371 15.9881C5.22371 14.3535 6.17948 13.0131 7.71794 13.0131ZM7.71794 14.0651C6.94871 14.0651 6.57563 14.9304 6.57563 15.9881C6.57563 17.142 6.94871 17.9112 7.71794 17.9112C8.48717 17.9112 8.88909 17.0458 8.88909 15.9881C8.88909 14.9304 8.48717 14.0651 7.71794 14.0651Z" fill="#757575"/>
</svg>
