<svg width="26" height="20" viewBox="0 0 26 20" fill="none" xmlns="http://www.w3.org/2000/svg">
<path d="M4.58333 14.7907C5.73393 14.7907 6.66667 13.8579 6.66667 12.7074C6.66667 11.5568 5.73393 10.624 4.58333 10.624C3.43274 10.624 2.5 11.5568 2.5 12.7074C2.5 13.8579 3.43274 14.7907 4.58333 14.7907Z" fill="white"/>
<path d="M1.68685 16.4372C0.916016 16.7705 0.416016 17.5205 0.416016 18.3643V19.9997H5.10352V18.3226C5.10352 17.458 5.3431 16.6455 5.75977 15.9372C5.37435 15.8747 4.98893 15.833 4.58268 15.833C3.55143 15.833 2.57227 16.0518 1.68685 16.4372Z" fill="white"/>
<path d="M21.2493 14.7907C22.3999 14.7907 23.3327 13.8579 23.3327 12.7074C23.3327 11.5568 22.3999 10.624 21.2493 10.624C20.0988 10.624 19.166 11.5568 19.166 12.7074C19.166 13.8579 20.0988 14.7907 21.2493 14.7907Z" fill="white"/>
<path d="M24.1452 16.4372C23.2598 16.0518 22.2806 15.833 21.2493 15.833C20.8431 15.833 20.4577 15.8747 20.0723 15.9372C20.4889 16.6455 20.7285 17.458 20.7285 18.3226V19.9997H25.416V18.3643C25.416 17.5205 24.916 16.7705 24.1452 16.4372Z" fill="white"/>
<path d="M17.3327 15.4678C16.1139 14.9261 14.6139 14.5303 12.916 14.5303C11.2181 14.5303 9.7181 14.9365 8.49935 15.4678C7.37435 15.9678 6.66602 17.0928 6.66602 18.3219V19.999H19.166V18.3219C19.166 17.0928 18.4577 15.9678 17.3327 15.4678Z" fill="white"/>
<path d="M9.79102 10.624C9.79102 12.3532 11.1868 13.749 12.916 13.749C14.6452 13.749 16.041 12.3532 16.041 10.624C16.041 8.89486 14.6452 7.49902 12.916 7.49902C11.1868 7.49902 9.79102 8.89486 9.79102 10.624Z" fill="white"/>
<path d="M2.99935 9.43717C2.67643 8.64551 2.49935 7.87467 2.49935 7.08301C2.49935 4.39551 4.60352 2.29134 7.29102 2.29134C10.0827 2.29134 11.2702 4.10384 12.916 6.03092C14.5514 4.12467 15.7285 2.29134 18.541 2.29134C21.2285 2.29134 23.3327 4.39551 23.3327 7.08301C23.3327 7.87467 23.1556 8.64551 22.8327 9.43717C23.5098 9.76009 24.0618 10.2913 24.4264 10.9372C25.0514 9.68717 25.416 8.41634 25.416 7.08301C25.416 3.22884 22.3952 0.208008 18.541 0.208008C16.3639 0.208008 14.2806 1.21842 12.916 2.82259C11.5514 1.21842 9.4681 0.208008 7.29102 0.208008C3.43685 0.208008 0.416016 3.22884 0.416016 7.08301C0.416016 8.41634 0.780599 9.68717 1.41602 10.9372C1.7806 10.2913 2.33268 9.76009 2.99935 9.43717Z" fill="white"/>
</svg>
