<svg width="26" height="24" viewBox="0 0 26 24" fill="none" xmlns="http://www.w3.org/2000/svg">
<path d="M25.416 18.3538V16.5681H23.5401C23.4243 16.0094 23.2024 15.4781 22.8866 15.0029L24.2169 13.6725L22.9544 12.41L21.6241 13.7404C21.1489 13.4245 20.6176 13.2027 20.0589 13.0868V11.2109H18.2732V13.0868C17.7145 13.2027 17.1831 13.4245 16.708 13.7404L15.3776 12.41L14.1151 13.6725L15.4455 15.0029C15.1296 15.4781 14.9077 16.0094 14.7919 16.5681H12.916V18.3538H14.7919C14.9077 18.9125 15.1296 19.4438 15.4455 19.919L14.1151 21.2493L15.3776 22.5118L16.708 21.1815C17.1831 21.4974 17.7145 21.7192 18.2732 21.835V23.7109H20.0589V21.835C20.6176 21.7192 21.1489 21.4974 21.6241 21.1815L22.9544 22.5118L24.2169 21.2493L22.8866 19.919C23.2024 19.4438 23.4243 18.9125 23.5401 18.3538H25.416ZM19.166 20.1395C18.6362 20.1395 18.1184 19.9824 17.6779 19.6881C17.2374 19.3938 16.8941 18.9754 16.6913 18.486C16.4886 17.9965 16.4356 17.458 16.5389 16.9384C16.6423 16.4188 16.8974 15.9415 17.272 15.5669C17.6466 15.1923 18.1239 14.9372 18.6435 14.8338C19.163 14.7305 19.7016 14.7835 20.1911 14.9863C20.6805 15.189 21.0988 15.5323 21.3932 15.9728C21.6875 16.4133 21.8446 16.9312 21.8446 17.4609C21.8439 18.1711 21.5614 18.852 21.0593 19.3542C20.5571 19.8564 19.8762 20.1388 19.166 20.1395Z" fill="#757575"/>
<path d="M23.6303 0.49707H2.20173C1.72813 0.49707 1.27393 0.685207 0.939039 1.02009C0.604153 1.35498 0.416016 1.80918 0.416016 2.28278V20.1399C0.416016 20.6135 0.604153 21.0677 0.939039 21.4026C1.27393 21.7375 1.72813 21.9256 2.20173 21.9256H11.1303V20.1399H2.20173V7.63993H23.6303V10.3185H25.416V2.28278C25.416 1.80918 25.2279 1.35498 24.893 1.02009C24.5581 0.685207 24.1039 0.49707 23.6303 0.49707ZM23.6303 5.85421H2.20173V2.28278H23.6303V5.85421Z" fill="#757575"/>
<path d="M16.4876 4.9615C16.9807 4.9615 17.3804 4.56175 17.3804 4.06864C17.3804 3.57553 16.9807 3.17578 16.4876 3.17578C15.9945 3.17578 15.5947 3.57553 15.5947 4.06864C15.5947 4.56175 15.9945 4.9615 16.4876 4.9615Z" fill="#757575"/>
<path d="M19.1663 4.9615C19.6594 4.9615 20.0592 4.56175 20.0592 4.06864C20.0592 3.57553 19.6594 3.17578 19.1663 3.17578C18.6732 3.17578 18.2734 3.57553 18.2734 4.06864C18.2734 4.56175 18.6732 4.9615 19.1663 4.9615Z" fill="#757575"/>
<path d="M21.845 4.9615C22.3381 4.9615 22.7379 4.56175 22.7379 4.06864C22.7379 3.57553 22.3381 3.17578 21.845 3.17578C21.3519 3.17578 20.9521 3.57553 20.9521 4.06864C20.9521 4.56175 21.3519 4.9615 21.845 4.9615Z" fill="#757575"/>
</svg>
